<svg xmlns="http://www.w3.org/2000/svg" width="39.215" height="40" viewBox="0 0 39.215 40">
  <g id="Group_8" data-name="Group 8" transform="translate(-945 -2321)">
    <path id="groups_24dp_E8EAED_FILL0_wght400_GRAD0_opsz24" d="M0-700.392v-2.573a3.275,3.275,0,0,1,1.8-2.859,8.974,8.974,0,0,1,4.739-1.1q.531,0,1.021.02a6.835,6.835,0,0,1,.94.1,6.8,6.8,0,0,0-.858,1.8,6.7,6.7,0,0,0-.286,1.961v2.655Zm9.8,0v-2.655a4.245,4.245,0,0,1,.715-2.39,6.486,6.486,0,0,1,2.022-1.9,9.988,9.988,0,0,1,3.125-1.225,17.968,17.968,0,0,1,3.942-.409,18.17,18.17,0,0,1,3.983.409,9.988,9.988,0,0,1,3.125,1.225,6.26,6.26,0,0,1,2,1.9,4.335,4.335,0,0,1,.694,2.39v2.655Zm22.059,0v-2.655a7.33,7.33,0,0,0-.266-2,6.4,6.4,0,0,0-.8-1.756,6.771,6.771,0,0,1,.919-.1q.47-.02.96-.02a9.11,9.11,0,0,1,4.739,1.083,3.259,3.259,0,0,1,1.8,2.88v2.573ZM13.276-703.66h12.7a3.76,3.76,0,0,0-2.267-1.43,13.054,13.054,0,0,0-4.105-.613,13.054,13.054,0,0,0-4.105.613Q13.644-704.477,13.276-703.66Zm-6.74-4.9a3.147,3.147,0,0,1-2.308-.96,3.147,3.147,0,0,1-.96-2.308,3.127,3.127,0,0,1,.96-2.328,3.181,3.181,0,0,1,2.308-.94,3.162,3.162,0,0,1,2.328.94,3.162,3.162,0,0,1,.94,2.328,3.181,3.181,0,0,1-.94,2.308A3.128,3.128,0,0,1,6.536-708.562Zm26.144,0a3.147,3.147,0,0,1-2.308-.96,3.147,3.147,0,0,1-.96-2.308,3.127,3.127,0,0,1,.96-2.328,3.181,3.181,0,0,1,2.308-.94,3.162,3.162,0,0,1,2.328.94,3.162,3.162,0,0,1,.94,2.328,3.181,3.181,0,0,1-.94,2.308A3.128,3.128,0,0,1,32.679-708.562ZM19.608-710.2a4.727,4.727,0,0,1-3.472-1.43,4.727,4.727,0,0,1-1.43-3.472,4.708,4.708,0,0,1,1.43-3.493A4.762,4.762,0,0,1,19.608-720a4.743,4.743,0,0,1,3.493,1.409A4.743,4.743,0,0,1,24.51-715.1a4.762,4.762,0,0,1-1.409,3.472A4.708,4.708,0,0,1,19.608-710.2Zm0-3.268a1.581,1.581,0,0,0,1.164-.47,1.581,1.581,0,0,0,.47-1.164,1.581,1.581,0,0,0-.47-1.164,1.581,1.581,0,0,0-1.164-.47,1.581,1.581,0,0,0-1.164.47,1.581,1.581,0,0,0-.47,1.164,1.581,1.581,0,0,0,.47,1.164A1.581,1.581,0,0,0,19.608-713.464ZM19.649-703.66ZM19.608-715.1Z" transform="translate(945 3050)" fill="#174084"/>
    <rect id="Rectangle_7" data-name="Rectangle 7" width="39" height="40" transform="translate(945 2321)" fill="none"/>
  </g>
</svg>
