<svg xmlns="http://www.w3.org/2000/svg" width="21.324" height="21.324" viewBox="0 0 21.324 21.324">
  <path id="schedule_24dp_E8EAED_FILL0_wght400_GRAD0_opsz24" d="M94.181-864.327l1.493-1.493-3.945-3.945v-4.9H89.6v5.758Zm-3.518,5.651a10.381,10.381,0,0,1-4.158-.84,10.766,10.766,0,0,1-3.385-2.279,10.766,10.766,0,0,1-2.279-3.385,10.382,10.382,0,0,1-.84-4.158,10.382,10.382,0,0,1,.84-4.158,10.768,10.768,0,0,1,2.279-3.385A10.768,10.768,0,0,1,86.5-879.16a10.382,10.382,0,0,1,4.158-.84,10.382,10.382,0,0,1,4.158.84,10.768,10.768,0,0,1,3.385,2.279,10.768,10.768,0,0,1,2.279,3.385,10.382,10.382,0,0,1,.84,4.158,10.382,10.382,0,0,1-.84,4.158,10.766,10.766,0,0,1-2.279,3.385,10.766,10.766,0,0,1-3.385,2.279A10.381,10.381,0,0,1,90.662-858.676ZM90.662-869.338Zm0,8.53A8.223,8.223,0,0,0,96.7-863.3a8.223,8.223,0,0,0,2.492-6.037,8.223,8.223,0,0,0-2.492-6.037,8.223,8.223,0,0,0-6.037-2.492,8.223,8.223,0,0,0-6.037,2.492,8.223,8.223,0,0,0-2.492,6.037,8.223,8.223,0,0,0,2.492,6.037A8.223,8.223,0,0,0,90.662-860.808Z" transform="translate(-80 880)" fill="#5a5a5a"/>
</svg>
