<svg xmlns="http://www.w3.org/2000/svg" width="24" height="40" viewBox="0 0 24 40">
  <g id="Group_9" data-name="Group 9" transform="translate(-945 -2092)">
    <path id="chat_bubble_24dp_E8EAED_FILL0_wght400_GRAD0_opsz24" d="M80-856v-21.6a2.311,2.311,0,0,1,.705-1.7A2.311,2.311,0,0,1,82.4-880h19.2a2.311,2.311,0,0,1,1.7.705,2.311,2.311,0,0,1,.7,1.7v14.4a2.311,2.311,0,0,1-.7,1.7,2.311,2.311,0,0,1-1.7.705H84.8Zm3.78-7.2H101.6v-14.4H82.4v15.75Zm-1.38,0v0Z" transform="translate(865 2981)" fill="#174084"/>
    <rect id="Rectangle_6" data-name="Rectangle 6" width="24" height="40" transform="translate(945 2092)" fill="none"/>
  </g>
</svg>
