<svg xmlns="http://www.w3.org/2000/svg" width="30" height="40" viewBox="0 0 30 40">
  <g id="Group_5" data-name="Group 5" transform="translate(-945 -2840)">
    <path id="earthquake_24dp_E8EAED_FILL0_wght400_GRAD0_opsz24" d="M89.957-851.653a1.455,1.455,0,0,1-.868-.266,1.355,1.355,0,0,1-.514-.726l-3.614-11.764H80v-2.835h6.024a1.4,1.4,0,0,1,.833.266,1.354,1.354,0,0,1,.514.726l2.339,7.618,4.5-20.233a1.4,1.4,0,0,1,.5-.815,1.361,1.361,0,0,1,.886-.319,1.411,1.411,0,0,1,.886.3,1.326,1.326,0,0,1,.5.8l3.083,13.323,1.984-6.343a1.354,1.354,0,0,1,.514-.726,1.4,1.4,0,0,1,.833-.266,1.386,1.386,0,0,1,.815.248,1.509,1.509,0,0,1,.532.673l1.772,4.748h1.843v2.835h-2.835a1.386,1.386,0,0,1-.815-.248,1.509,1.509,0,0,1-.532-.673l-.673-1.807-2.3,7.406a1.41,1.41,0,0,1-.532.744,1.3,1.3,0,0,1-.886.248,1.435,1.435,0,0,1-.85-.337,1.381,1.381,0,0,1-.461-.762l-2.87-12.331L91.3-852.751a1.28,1.28,0,0,1-.478.78A1.586,1.586,0,0,1,89.957-851.653Z" transform="translate(865 3727)" fill="#174084"/>
    <rect id="Rectangle_10" data-name="Rectangle 10" width="30" height="40" transform="translate(945 2840)" fill="none"/>
  </g>
</svg>
