<svg xmlns="http://www.w3.org/2000/svg" width="25.563" height="17.783" viewBox="0 0 25.563 17.783">
  <path id="interpreter_mode_24dp_E8EAED_FILL0_wght400_GRAD0_opsz24" d="M61.673-786.107a1.607,1.607,0,0,1-1.181-.486,1.608,1.608,0,0,1-.486-1.181v-2.778a1.608,1.608,0,0,1,.486-1.181,1.608,1.608,0,0,1,1.181-.486,1.608,1.608,0,0,1,1.181.486,1.608,1.608,0,0,1,.486,1.181v2.778a1.608,1.608,0,0,1-.486,1.181A1.607,1.607,0,0,1,61.673-786.107Zm-.556,3.89v-1.723a3.916,3.916,0,0,1-2.376-1.292,3.682,3.682,0,0,1-.959-2.542h1.111A2.683,2.683,0,0,0,59.7-785.8a2.683,2.683,0,0,0,1.973.806,2.683,2.683,0,0,0,1.973-.806,2.683,2.683,0,0,0,.806-1.973h1.111a3.682,3.682,0,0,1-.959,2.542,3.916,3.916,0,0,1-2.376,1.292v1.723Zm-12.226-8.891a4.281,4.281,0,0,1-3.14-1.306,4.281,4.281,0,0,1-1.306-3.14,4.281,4.281,0,0,1,1.306-3.14A4.281,4.281,0,0,1,48.891-800a5.215,5.215,0,0,1,.764.056,3.459,3.459,0,0,1,.736.195,6.366,6.366,0,0,0-1.111,1.931,6.575,6.575,0,0,0-.389,2.265,6.575,6.575,0,0,0,.389,2.265,6.365,6.365,0,0,0,1.111,1.931,3.452,3.452,0,0,1-.736.195A5.215,5.215,0,0,1,48.891-791.109ZM40-782.217V-785.3a3.4,3.4,0,0,1,.472-1.75,3.08,3.08,0,0,1,1.306-1.223,14.679,14.679,0,0,1,2.292-.959,16.885,16.885,0,0,1,2.709-.625,5.351,5.351,0,0,0-1.723,1.973,5.591,5.591,0,0,0-.611,2.584v3.084Zm15.56-8.891a4.281,4.281,0,0,1-3.14-1.306,4.281,4.281,0,0,1-1.306-3.14,4.281,4.281,0,0,1,1.306-3.14A4.281,4.281,0,0,1,55.56-800a4.281,4.281,0,0,1,3.14,1.306,4.281,4.281,0,0,1,1.306,3.14,4.281,4.281,0,0,1-1.306,3.14A4.281,4.281,0,0,1,55.56-791.109Zm0-2.223a2.14,2.14,0,0,0,1.57-.653,2.141,2.141,0,0,0,.653-1.57,2.14,2.14,0,0,0-.653-1.57,2.14,2.14,0,0,0-1.57-.653,2.14,2.14,0,0,0-1.57.653,2.14,2.14,0,0,0-.653,1.57,2.141,2.141,0,0,0,.653,1.57A2.14,2.14,0,0,0,55.56-793.332Zm-8.891,11.114V-785.3a3.4,3.4,0,0,1,.472-1.75,3.08,3.08,0,0,1,1.306-1.223,17.3,17.3,0,0,1,3.209-1.223,14.486,14.486,0,0,1,3.9-.5q.333,0,.653.014t.625.042a6.14,6.14,0,0,0-.458,1.042,5.065,5.065,0,0,0-.236,1.125H55.56a11.482,11.482,0,0,0-3.543.5,18.694,18.694,0,0,0-2.542,1,1.006,1.006,0,0,0-.431.4,1.118,1.118,0,0,0-.153.57v.861h7.974a5.285,5.285,0,0,0,1.028,1.278,6.376,6.376,0,0,0,1.361.945ZM55.56-795.554ZM55.56-784.44Z" transform="translate(-40 800)" fill="#5a5a5a"/>
</svg>
