<svg xmlns="http://www.w3.org/2000/svg" width="20" height="40" viewBox="0 0 20 40">
  <g id="Group_7" data-name="Group 7" transform="translate(-945 -2515)">
    <path id="description_24dp_E8EAED_FILL0_wght400_GRAD0_opsz24" d="M164.679-861.285h9.357v-2.339h-9.357Zm0-4.679h9.357V-868.3h-9.357Zm-2.339,9.357a2.253,2.253,0,0,1-1.652-.687,2.253,2.253,0,0,1-.687-1.652v-18.715a2.253,2.253,0,0,1,.687-1.652,2.253,2.253,0,0,1,1.652-.687H171.7l7.018,7.018v14.036a2.253,2.253,0,0,1-.687,1.652,2.253,2.253,0,0,1-1.652.687Zm8.188-15.206v-5.848h-8.188v18.715h14.036v-12.866Zm-8.188-5.848v0Z" transform="translate(785 3404)" fill="#174084"/>
    <rect id="Rectangle_8" data-name="Rectangle 8" width="20" height="40" transform="translate(945 2515)" fill="none"/>
  </g>
</svg>
