<svg xmlns="http://www.w3.org/2000/svg" width="14" height="20" viewBox="0 0 14 20">
  <path id="pin_drop_24dp_E8EAED_FILL0_wght400_GRAD0_opsz24" d="M207-865.525a18.757,18.757,0,0,0,3.738-3.85A6.253,6.253,0,0,0,212-872.85a5.108,5.108,0,0,0-1.4-3.7A4.784,4.784,0,0,0,207-878a4.784,4.784,0,0,0-3.6,1.45,5.108,5.108,0,0,0-1.4,3.7,6.253,6.253,0,0,0,1.263,3.475A18.758,18.758,0,0,0,207-865.525ZM207-863a23.481,23.481,0,0,1-5.262-5.05,8.31,8.31,0,0,1-1.738-4.8,7.079,7.079,0,0,1,1.95-5.138A6.72,6.72,0,0,1,207-880a6.72,6.72,0,0,1,5.05,2.012A7.079,7.079,0,0,1,214-872.85a8.31,8.31,0,0,1-1.738,4.8A23.481,23.481,0,0,1,207-863Zm0-8a1.926,1.926,0,0,0,1.412-.588A1.926,1.926,0,0,0,209-873a1.926,1.926,0,0,0-.588-1.412A1.926,1.926,0,0,0,207-875a1.926,1.926,0,0,0-1.413.588A1.926,1.926,0,0,0,205-873a1.926,1.926,0,0,0,.588,1.412A1.926,1.926,0,0,0,207-871Zm-7,11v-2h14v2ZM207-873Z" transform="translate(-200 880)" fill="#5a5a5a"/>
</svg>
