<svg xmlns="http://www.w3.org/2000/svg" width="291.08" height="81.579" viewBox="0 0 291.08 81.579">
  <g id="Group_1" data-name="Group 1" transform="translate(-818.2 -88.374)">
    <g id="Group_4" data-name="Group 4">
      <path id="Path_2" data-name="Path 2" d="M9.48.72A19.4,19.4,0,0,1,5,.18,14.075,14.075,0,0,1,1.2-1.24l.2-5.44h.4l1.24,2.6A13.2,13.2,0,0,0,4.24-2.1,4.194,4.194,0,0,0,6-.76a5.922,5.922,0,0,0,1.54.54A8.97,8.97,0,0,0,9.2-.08,5.446,5.446,0,0,0,13.06-1.4a4.433,4.433,0,0,0,1.42-3.4,4.5,4.5,0,0,0-.96-3.06A9.833,9.833,0,0,0,10.44-10L8.8-10.72a17.161,17.161,0,0,1-5.38-3.5,7.192,7.192,0,0,1-1.94-5.26A6.869,6.869,0,0,1,2.7-23.56,7.736,7.736,0,0,1,6.1-26.2a13.044,13.044,0,0,1,5.1-.92,14.149,14.149,0,0,1,4.02.56,11.583,11.583,0,0,1,3.3,1.52l-.24,4.8h-.4l-1.64-3a6.152,6.152,0,0,0-1.36-1.98,3.991,3.991,0,0,0-1.56-.82,6.087,6.087,0,0,0-.96-.22,8.559,8.559,0,0,0-1.12-.06A5.157,5.157,0,0,0,7.8-25.14a3.944,3.944,0,0,0-1.4,3.18A4.739,4.739,0,0,0,7.48-18.7a9.451,9.451,0,0,0,3.16,2.18l1.84.8A15.828,15.828,0,0,1,18-12.14a7.123,7.123,0,0,1,1.68,4.9A7.13,7.13,0,0,1,17.02-1.5Q14.36.72,9.48.72ZM22.36,0V-.4l.8-.28a1.676,1.676,0,0,0,1.06-.72,2.692,2.692,0,0,0,.26-1.28V-23.64a2.531,2.531,0,0,0-.28-1.28,1.918,1.918,0,0,0-1.08-.76L22.36-26v-.4h9.72q5.96,0,8.62,2.18a7.058,7.058,0,0,1,2.66,5.74,8.194,8.194,0,0,1-1.1,4.18,7.527,7.527,0,0,1-3.62,3.02,17.031,17.031,0,0,1-6.8,1.12H30.48V-2.8A1.976,1.976,0,0,0,32.04-.76l1.2.36V0Zm8.12-10.96H32a6.969,6.969,0,0,0,3.2-.64,3.932,3.932,0,0,0,1.84-2.24,13.077,13.077,0,0,0,.6-4.44,12.118,12.118,0,0,0-.66-4.48,4.037,4.037,0,0,0-1.94-2.22,7.321,7.321,0,0,0-3.2-.62H30.48ZM45.36,0V-.4l.92-.36a1.82,1.82,0,0,0,.94-.74,2.57,2.57,0,0,0,.26-1.26V-23.64a2.968,2.968,0,0,0-.22-1.26,1.64,1.64,0,0,0-.98-.74L45.36-26v-.4H64.52l.24,6.16h-.4L62.64-24a5.138,5.138,0,0,0-.76-1.16,1.541,1.541,0,0,0-1.2-.44h-7.2v11.56h4.28a1.652,1.652,0,0,0,1.22-.42,3.747,3.747,0,0,0,.74-1.14l.8-1.6h.4V-10h-.4l-.8-1.68a4.693,4.693,0,0,0-.76-1.14,1.583,1.583,0,0,0-1.2-.42H53.48V-.8h8.08a1.724,1.724,0,0,0,1.24-.42,3.068,3.068,0,0,0,.72-1.18l1.64-3.76h.4L65.32,0ZM67.8,0V-.4l1-.36a3.477,3.477,0,0,0,1.24-.78,3.423,3.423,0,0,0,.72-1.3L79-26.48h3.4l8.12,23.8a4.28,4.28,0,0,0,.72,1.34,3.055,3.055,0,0,0,1.24.78l.48.16V0H82.8V-.4l.6-.2a1.525,1.525,0,0,0,1.02-.9,2.361,2.361,0,0,0-.06-1.38L82.48-8.64H73.6L71.68-3a2.991,2.991,0,0,0-.18,1.4q.1.52.94.84l.88.36V0Zm6.08-9.44h8.36L78.2-21.88ZM95,0V-.4l.84-.32a1.722,1.722,0,0,0,1.04-.76,2.775,2.775,0,0,0,.24-1.24V-23.64a2.883,2.883,0,0,0-.24-1.28,1.722,1.722,0,0,0-1.04-.76L95-26v-.4h9.96v.4l-.88.36a1.531,1.531,0,0,0-.92.72,2.993,2.993,0,0,0-.24,1.32V-2.68a2.453,2.453,0,0,0,.26,1.24,1.884,1.884,0,0,0,1.02.72l.76.32V0Zm14.76,0V-.4l.52-.16q.8-.24.84-.8a2.024,2.024,0,0,0-.48-1.28l-7.68-10.92,10.12-10.32a1.9,1.9,0,0,0,.62-1.08q.06-.52-.78-.8l-.68-.24v-.4h5.84v.4l-1.04.32a4.566,4.566,0,0,0-1.4.68,12.789,12.789,0,0,0-1.2,1.08l-7.16,7.32,9.4,13.72a11.077,11.077,0,0,0,1.14,1.44,3.636,3.636,0,0,0,1.54.88l.56.16V0Zm21.72,0V-.4l.8-.32a1.817,1.817,0,0,0,1.06-.76,2.593,2.593,0,0,0,.26-1.24V-23.64a2.692,2.692,0,0,0-.26-1.28,1.817,1.817,0,0,0-1.06-.76l-.8-.32v-.4h10.16v.4l-.68.28a1.947,1.947,0,0,0-1.04.74,2.418,2.418,0,0,0-.28,1.26V-14h9.56v-9.72a2.57,2.57,0,0,0-.26-1.26,1.857,1.857,0,0,0-1.06-.74l-.72-.28v-.4h10.2v.4l-.8.32a1.9,1.9,0,0,0-1.04.76,2.531,2.531,0,0,0-.28,1.28V-2.72a2.439,2.439,0,0,0,.28,1.24,1.9,1.9,0,0,0,1.04.76l.8.32V0h-10.2V-.4l.72-.24a2.021,2.021,0,0,0,1.06-.78,2.57,2.57,0,0,0,.26-1.26V-13.2h-9.56V-2.68a2.037,2.037,0,0,0,1.32,2.04l.68.24V0Zm28.44,0V-.4l.8-.32a1.817,1.817,0,0,0,1.06-.76,2.692,2.692,0,0,0,.26-1.28V-23.64a2.883,2.883,0,0,0-.24-1.28,1.745,1.745,0,0,0-1.08-.76l-.8-.32v-.4H170.2v.4l-.8.32a1.817,1.817,0,0,0-1.06.76,2.692,2.692,0,0,0-.26,1.28V-2.76a2.57,2.57,0,0,0,.26,1.26,2.021,2.021,0,0,0,1.06.78l.8.32V0Zm21.44.72a19.4,19.4,0,0,1-4.48-.54,14.075,14.075,0,0,1-3.8-1.42l.2-5.44h.4l1.24,2.6a13.2,13.2,0,0,0,1.2,1.98,4.2,4.2,0,0,0,1.76,1.34,5.922,5.922,0,0,0,1.54.54,8.97,8.97,0,0,0,1.66.14,5.446,5.446,0,0,0,3.86-1.32,4.433,4.433,0,0,0,1.42-3.4,4.5,4.5,0,0,0-.96-3.06A9.833,9.833,0,0,0,182.32-10l-1.64-.72a17.161,17.161,0,0,1-5.38-3.5,7.192,7.192,0,0,1-1.94-5.26,6.868,6.868,0,0,1,1.22-4.08,7.736,7.736,0,0,1,3.4-2.64,13.044,13.044,0,0,1,5.1-.92,14.149,14.149,0,0,1,4.02.56,11.583,11.583,0,0,1,3.3,1.52l-.24,4.8h-.4l-1.64-3a6.152,6.152,0,0,0-1.36-1.98,3.991,3.991,0,0,0-1.56-.82,6.087,6.087,0,0,0-.96-.22,8.559,8.559,0,0,0-1.12-.06,5.157,5.157,0,0,0-3.44,1.18,3.944,3.944,0,0,0-1.4,3.18,4.739,4.739,0,0,0,1.08,3.26,9.451,9.451,0,0,0,3.16,2.18l1.84.8a15.828,15.828,0,0,1,5.52,3.58,7.123,7.123,0,0,1,1.68,4.9A7.13,7.13,0,0,1,188.9-1.5Q186.24.72,181.36.72ZM199.12,0V-.4l1.64-.4a1.868,1.868,0,0,0,1.64-2V-25.6H199a2.594,2.594,0,0,0-2.12.78,13.083,13.083,0,0,0-1.36,2.14l-1.44,2.8h-.4l.2-6.52h23.08l.16,6.52h-.4l-1.44-2.8a11.6,11.6,0,0,0-1.32-2.14,2.594,2.594,0,0,0-2.12-.78h-3.4V-2.8a1.868,1.868,0,0,0,1.64,2l1.64.4V0Zm32.4.72a12.842,12.842,0,0,1-4.7-.88,11.919,11.919,0,0,1-4.04-2.62,12.423,12.423,0,0,1-2.82-4.34,16.308,16.308,0,0,1-1.04-6.08,16.189,16.189,0,0,1,1.04-6.04,12.281,12.281,0,0,1,2.84-4.34,12.4,12.4,0,0,1,4.06-2.64,12.487,12.487,0,0,1,4.66-.9,13.105,13.105,0,0,1,4.7.86,11.668,11.668,0,0,1,4.04,2.6,12.389,12.389,0,0,1,2.82,4.36,16.466,16.466,0,0,1,1.04,6.1,16.228,16.228,0,0,1-1.04,6.02,12.389,12.389,0,0,1-2.82,4.36,12.179,12.179,0,0,1-4.04,2.64A12.59,12.59,0,0,1,231.52.72Zm0-.84a5.238,5.238,0,0,0,3.56-1.18,7.266,7.266,0,0,0,1.98-4.04,38.938,38.938,0,0,0,.62-7.86,39.2,39.2,0,0,0-.62-7.9,7.266,7.266,0,0,0-1.98-4.04,5.238,5.238,0,0,0-3.56-1.18A5.178,5.178,0,0,0,228-25.14a7.267,7.267,0,0,0-1.98,4.04,39.2,39.2,0,0,0-.62,7.9,38.938,38.938,0,0,0,.62,7.86A7.267,7.267,0,0,0,228-1.3,5.178,5.178,0,0,0,231.52-.12Zm14.4.12V-.4l.84-.28a1.757,1.757,0,0,0,1.04-.74,2.86,2.86,0,0,0,.24-1.3V-23.64a2.968,2.968,0,0,0-.22-1.26,1.64,1.64,0,0,0-.98-.74l-.92-.36v-.4h11.44q4.72,0,7.24,1.78a5.713,5.713,0,0,1,2.52,4.94,5.851,5.851,0,0,1-1.32,3.52,8.359,8.359,0,0,1-4.16,2.72L267.2-2.4a4.014,4.014,0,0,0,.82,1.1,4.231,4.231,0,0,0,1.22.74l.52.2V0H262.6l-5.92-12.6h-2.72v9.88a2.775,2.775,0,0,0,.24,1.24,1.567,1.567,0,0,0,1,.72l.96.36V0Zm8.04-13.4h1.92a5.117,5.117,0,0,0,4.16-1.54,7.027,7.027,0,0,0,1.28-4.58,7.26,7.26,0,0,0-1.2-4.58q-1.2-1.5-4.04-1.5h-2.12ZM275.56,0V-.4l1.2-.32a1.852,1.852,0,0,0,1.4-2v-7.6l-6.6-13.44a6.581,6.581,0,0,0-.66-1.2,2.322,2.322,0,0,0-.9-.68l-.72-.36v-.4H280v.4l-.72.28q-.88.36-.96.98a3.031,3.031,0,0,0,.32,1.54l4.72,10.48,5.28-10.88a2.425,2.425,0,0,0,.26-1.32.98.98,0,0,0-.86-.88l-.56-.2v-.4h4.8v.4l-.76.28a2.316,2.316,0,0,0-1.12.78,8.127,8.127,0,0,0-.72,1.26L284.2-12.16v9.44a2.5,2.5,0,0,0,.3,1.3,1.653,1.653,0,0,0,1.06.7l1.24.32V0Z" transform="translate(817 169.233)" fill="#174084"/>
      <path id="Path_1" data-name="Path 1" d="M639.989,35.248a6.252,6.252,0,0,1,12.5,0v9.611h19.057l-7.455-32.568h-6.8v6.576h-6.569V12.854l-3.97-1.871V6.029h7.483l-1.854-3.072L654.032,0h-7.792V10.74l-4.484,2.126v6h-6.569V12.292h-6.146l-8.109,32.568h19.057Z" transform="translate(317.068 88.374)" fill="#174084"/>
    </g>
  </g>
</svg>
